<?xml version="1.0" encoding="UTF-8"?>
<svg version="1.1" xmlns="http://www.w3.org/2000/svg" width="32" height="32">
<path d="M0 0 C3.16961356 1.28133314 4.57820229 2.5200233 6.8125 5.0625 C8.92684978 10.29273366 8.92684978 15.70726634 6.8125 20.9375 C4.02985749 24.10395527 1.91625765 25.76954397 -2.37109375 26.28515625 C-7.32658844 26.45451194 -11.12011628 26.40959478 -15 23 C-18.52139964 18.75003492 -18.26853954 15.28127753 -18 10 C-18.66 9.67 -19.32 9.34 -20 9 C-18.66666667 7.66666667 -17.33333333 6.33333333 -16 5 C-14.948125 3.9171875 -14.948125 3.9171875 -13.875 2.8125 C-9.88376418 -1.04569463 -5.2730842 -0.45744421 0 0 Z " fill="#D6B56F" transform="translate(21,3)"/>
<path d="M0 0 C2 1.375 2 1.375 4 4 C4.73304848 8.57576575 4.55157413 12.63557977 2.8125 16.9375 C0.02985749 20.10395527 -2.08374235 21.76954397 -6.37109375 22.28515625 C-11.39904052 22.45698801 -14.92089312 22.2632855 -19 19 C-18.67 18.34 -18.34 17.68 -18 17 C-17.34 17.495 -16.68 17.99 -16 18.5 C-12.03366759 20.48316621 -9.39696738 20.22357461 -5 20 C-6.31316121 20 -7.6255261 20.06917132 -8.9375 20.125 C-12 20 -12 20 -14 18 C-13 17 -13 17 -9.9375 16.9375 C-8.4834375 16.9684375 -8.4834375 16.9684375 -7 17 C-7 15.35 -7 13.7 -7 12 C-5.68 12.66 -4.36 13.32 -3 14 C-3.3403125 12.63875 -3.3403125 12.63875 -3.6875 11.25 C-4 8 -4 8 -2.6875 5.625 C-1 4 -1 4 1 4 C2.35675137 6.71350273 2.06381682 9.00060968 2 12 C2 12.33 2 12.66 2 13 C2.16682272 8.07872966 2.24828052 4.49656104 0 0 Z " fill="#B58228" transform="translate(25,7)"/>
<path d="M0 0 C1.06528748 2.73019786 1.07998186 3.79298812 0.00390625 6.578125 C-0.47175781 7.45984375 -0.94742187 8.3415625 -1.4375 9.25 C-2.14712891 10.58804687 -2.14712891 10.58804687 -2.87109375 11.953125 C-3.24363281 12.62859375 -3.61617187 13.3040625 -4 14 C-3.01 14 -2.02 14 -1 14 C-0.67 13.01 -0.34 12.02 0 11 C0.33 11 0.66 11 1 11 C1 12.65 1 14.3 1 16 C0.34 16.33 -0.32 16.66 -1 17 C0.09631369 18.32131818 0.09631369 18.32131818 2.8125 18.125 C5.42835942 18.02241728 7.5193362 17.76328117 10 17 C9 18.5 9 18.5 7 20 C0.89547985 20.82773155 -2.36297873 19.68270308 -7.43359375 16.2890625 C-9 15 -9 15 -10 13 C-10.13415472 10.3276379 -10.04318541 7.67749512 -10 5 C-10.66 4.67 -11.32 4.34 -12 4 C-11.01 4 -10.02 4 -9 4 C-8.67 6.31 -8.34 8.62 -8 11 C-7.979375 10.29875 -7.95875 9.5975 -7.9375 8.875 C-6.55020791 4.6206376 -3.48375828 2.64692861 0 0 Z " fill="#CFB06F" transform="translate(13,8)"/>
<path d="M0 0 C0.33 0.66 0.66 1.32 1 2 C1.99 2 2.98 2 4 2 C5.65 5.96 7.3 9.92 9 14 C7.68 13.67 6.36 13.34 5 13 C4.67 13.99 4.34 14.98 4 16 C2.68 16 1.36 16 0 16 C-0.33 14.68 -0.66 13.36 -1 12 C-1.33 12.66 -1.66 13.32 -2 14 C-2.99 14 -3.98 14 -5 14 C-3.46527032 9.27775484 -1.76054874 4.64144669 0 0 Z " fill="#EDE0C5" transform="translate(14,8)"/>
<path d="M0 0 C2 1.375 2 1.375 4 4 C4.73304848 8.57576575 4.55157413 12.63557977 2.8125 16.9375 C0.02985749 20.10395527 -2.08374235 21.76954397 -6.37109375 22.28515625 C-11.39904052 22.45698801 -14.92089312 22.2632855 -19 19 C-18.67 18.34 -18.34 17.68 -18 17 C-17.34 17.495 -16.68 17.99 -16 18.5 C-12.26903823 20.36548089 -9.05418028 20.8710153 -5 20 C-1.98215009 18.24392354 0.41468217 16.17063565 2 13 C2.2430836 8.05730019 2.25495121 4.50990242 0 0 Z " fill="#BB9041" transform="translate(25,7)"/>
<path d="M0 0 C0.66 0.66 1.32 1.32 2 2 C1.33613281 1.95359375 0.67226563 1.9071875 -0.01171875 1.859375 C-5.82377204 1.58532726 -5.82377204 1.58532726 -11.0625 3.875 C-14.00215063 7.09913295 -14.11724651 8.85477254 -14.0625 13.125 C-14.04896484 14.49011719 -14.04896484 14.49011719 -14.03515625 15.8828125 C-14.02355469 16.58148437 -14.01195312 17.28015625 -14 18 C-16.74338986 15.25661014 -16.69475237 13.02125954 -17.02734375 9.25390625 C-16.98809921 6.01903487 -16.126317 4.40982593 -14 2 C-9.71260712 -1.78299371 -5.28559293 -1.38110778 0 0 Z " fill="#F5E5B2" transform="translate(20,4)"/>
<path d="M0 0 C-0.33 1.65 -0.66 3.3 -1 5 C-1.99 5 -2.98 5 -4 5 C-4 4.34 -4 3.68 -4 3 C-6.97 5.31 -9.94 7.62 -13 10 C-13.33 9.01 -13.66 8.02 -14 7 C-9.95864478 1.08230129 -7.09315661 -0.26766629 0 0 Z " fill="#EDCF7C" transform="translate(19,5)"/>
<path d="M0 0 C0.33 0.66 0.66 1.32 1 2 C1.99 2 2.98 2 4 2 C5.65 5.96 7.3 9.92 9 14 C7.68 13.67 6.36 13.34 5 13 C5 12.34 5 11.68 5 11 C3.68 10.67 2.36 10.34 1 10 C1.66 9.67 2.32 9.34 3 9 C3 7.68 3 6.36 3 5 C1.68 5.33 0.36 5.66 -1 6 C-0.67 4.02 -0.34 2.04 0 0 Z " fill="#FAF7F0" transform="translate(14,8)"/>
<path d="M0 0 C1.1328125 3.7421875 1.1328125 3.7421875 -0.0625 6.0625 C-2.44856292 8.44856292 -4.93357619 9.63714497 -8 11 C-7.91433603 8.087425 -7.42089045 6.43201976 -5.375 4.33203125 C-3.61608625 2.83908228 -1.83686981 1.39563738 0 0 Z " fill="#DDB962" transform="translate(13,8)"/>
<path d="M0 0 C5.53846154 0.61538462 5.53846154 0.61538462 7.875 2.5625 C8.431875 3.2740625 8.431875 3.2740625 9 4 C7 6 7 6 4.4375 6.5 C3.633125 6.665 2.82875 6.83 2 7 C1.67 7.66 1.34 8.32 1 9 C0.67 7.02 0.34 5.04 0 3 C0.99 2.67 1.98 2.34 3 2 C2.01 1.34 1.02 0.68 0 0 Z " fill="#DFBF71" transform="translate(17,3)"/>
<path d="M0 0 C0.66 0 1.32 0 2 0 C2.33 1.32 2.66 2.64 3 4 C1.02 5.32 -0.96 6.64 -3 8 C-2.25 2.25 -2.25 2.25 0 0 Z " fill="#C19137" transform="translate(24,11)"/>
<path d="M0 0 C0.33 0.99 0.66 1.98 1 3 C-0.9375 5.6875 -0.9375 5.6875 -3 8 C-3.33 6.35 -3.66 4.7 -4 3 C-2.68 2.01 -1.36 1.02 0 0 Z " fill="#D4AC53" transform="translate(10,15)"/>
<path d="M0 0 C0.33 1.32 0.66 2.64 1 4 C-1.90600261 5.25664978 -3.79604584 6 -7 6 C-4.69 4.02 -2.38 2.04 0 0 Z " fill="#E5C36B" transform="translate(13,8)"/>
</svg>
